<svg xmlns="http://www.w3.org/2000/svg" viewBox="0 0 774.67 186.67">
  <defs>
    <style>
      .a {
        fill: #fff;
      }

      .b {
        fill: #ac162c;
      }
    </style>
  </defs>
  <title>logo-rw</title>
  <g>
    <path class="a" d="M185.22,143.29a61,61,0,0,0,15.5,1.58q17.16,0,27.14-7.72t10-21.18a27.15,27.15,0,0,0-5.6-17.26q-5.61-7.14-18.34-12.16t-16.62-8c-2.58-2-3.88-4.22-3.88-6.68q0-9.41,11.83-9.42,13.16,0,20.57,6.38l6.5-17.54A61.42,61.42,0,0,0,204,44.51q-14.9,0-24.49,7T169.9,71.06q0,18.7,25,29.1c7.66,3.19,12.8,6,15.46,8.32a11.6,11.6,0,0,1,4,9.05q0,9.4-13.2,9.4a35.54,35.54,0,0,1-22.86-8.11l-8.06,18a77.22,77.22,0,0,0,15,6.46m153.94-.15L299.7,83l32.74-36.72h-27.2l-32.3,37.18V4.8l-22.57,5.42V143.13h22.57V110.75l10.85-11.5,28.51,43.88Zm92.44-96.89H408.21l-24.13,66.91L357.51,46.24H334.12l30.29,75.14q7.21,17.9,7.23,26.58,0,13.12-26.16,13.12v20q15.85,0,27.75-6.37t15.53-16.07Zm48.24,98.62q22.15,0,34.94-12.82t12.78-36.59q0-50.94-46.26-50.94a28.8,28.8,0,0,0-20.87,8.25V46.24H437.84V181.1h22.58V140.61a43.86,43.86,0,0,0,19.42,4.25m-5-81.15q15.62,0,22.41,7t6.78,24.12q0,16-6.83,23.49t-22.45,7.43a22.2,22.2,0,0,1-14.37-5V70a19.92,19.92,0,0,1,14.46-6.31m73.05,67.38q12.24,13.78,34.32,13.77,21.62,0,34.05-13.64t12.45-36.76q0-23.22-12.22-36.59T582.24,44.51q-21,0-33.78,13.91T535.67,94.46q0,22.85,12.26,36.63M565.4,71.23a20,20,0,0,1,16.84-8.32q23,0,23,31.55,0,15.35-6.2,23.68a19.83,19.83,0,0,1-16.79,8.32q-23.08,0-23.08-32,0-14.92,6.24-23.24M706.7,48Q700.55,44.5,689,44.51q-15.72,0-25.22,10.65V46.24H641.17v96.89h22.58V88a26,26,0,0,1,6.09-17.45q6.11-7.14,14-7.15a23.39,23.39,0,0,1,13.28,4.06Zm11.53,65.39q0,15.08,7.78,23.27t22.24,8.18q14.56,0,22.42-2.7V121.37a28.19,28.19,0,0,1-15.2,4.39c-5.44,0-9.23-1.42-11.41-4.29s-3.26-7.76-3.26-14.69V64.41h26.61V46.24H740.8v-28l-22.57,8.31V46.24H707V64.41h11.23Z"/>
    <polygon class="b" points="42.15 44.01 141.45 44.01 132.12 68.33 32.82 68.33 42.15 44.01"/>
    <polygon class="b" points="27.91 82.02 127.2 82.02 117.87 106.34 18.58 106.34 27.91 82.02"/>
    <polygon class="b" points="14.01 120.03 4.67 144.34 103.96 144.34 113.3 120.03 14.01 120.03"/>
  </g>
</svg>
